<svg width="20.000000" height="14.000000" viewBox="0 0 20 14" fill="none" xmlns="http://www.w3.org/2000/svg" xmlns:xlink="http://www.w3.org/1999/xlink">
	<desc>
			Created with Pixso.
	</desc>
	<defs/>
	<path d="M8.07251 5.84033C8.07251 5.84033 9.96216 5.69324 9.96216 3.34131C9.96216 0.99585 8.41663 -0.154785 6.45435 -0.154785L0 -0.154785L0 12.9791L6.45386 12.9791C6.45386 12.9791 10.3964 13.1072 10.3964 9.09985C10.3967 9.09985 10.5658 5.84033 8.07251 5.84033ZM12.9805 2.23572L12.9805 0.61853L18.1003 0.61853L18.1003 2.23572L12.9805 2.23572ZM6.4541 2.17786L2.84387 2.17786L2.84387 5.11145L6.23071 5.11145C6.81641 5.11145 7.32959 4.91309 7.32959 3.54553C7.32959 2.17786 6.4541 2.17786 6.4541 2.17786ZM15.649 3.18774C10.8917 3.18774 10.8855 8.20496 10.8855 8.23083C10.8855 8.23083 10.5596 13.2543 15.649 13.2543C15.649 13.2543 19.8934 13.5098 19.8934 9.75818L17.714 9.75818C17.714 9.75818 17.7863 11.1705 15.7216 11.1705C15.7216 11.1705 13.5421 11.3241 13.5421 8.88879L19.9659 8.88879C19.9659 8.88879 20.6724 3.18774 15.649 3.18774ZM15.6975 5.11145C13.7834 5.11145 13.5177 7.1311 13.5177 7.1311L17.5872 7.1311C17.5872 7.1311 17.6174 5.11145 15.6975 5.11145ZM6.27319 10.6465L2.84387 10.6465L2.84387 7.1311L6.4541 7.1311C6.4541 7.1311 7.76453 7.11841 7.7583 8.93982C7.7583 10.474 6.7865 10.6338 6.27319 10.6465Z" clip-rule="evenodd" fill="#5A5A5A" fill-opacity="1.000000" fill-rule="evenodd"/>
</svg>
