<svg width="11.000000" height="20.000000" viewBox="0 0 11 20" fill="none" xmlns="http://www.w3.org/2000/svg" xmlns:xlink="http://www.w3.org/1999/xlink">
	<desc>
			Created with Pixso.
	</desc>
	<defs/>
	<path id="Path" d="M10.58 0L7.94 0C4.98 0 3.06 1.93 3.06 4.92L3.06 7.19L0.41 7.19C0.18 7.19 0 7.37 0 7.59L0 10.88C0 11.11 0.18 11.29 0.41 11.29L3.06 11.29L3.06 19.59C3.06 19.81 3.25 20 3.48 20L6.94 20C7.17 20 7.35 19.81 7.35 19.59L7.35 11.29L10.46 11.29C10.68 11.29 10.87 11.11 10.87 10.88L10.87 7.59C10.87 7.49 10.83 7.38 10.75 7.31C10.67 7.23 10.57 7.19 10.46 7.19L7.35 7.19L7.35 5.26C7.35 4.34 7.58 3.87 8.8 3.87L10.58 3.87C10.81 3.87 11 3.69 11 3.46L11 0.41C11 0.18 10.81 0 10.58 0Z" fill="#5A5A5A" fill-opacity="1.000000" fill-rule="nonzero"/>
</svg>
