<svg width="15.000000" height="20.000000" viewBox="0 0 15 20" fill="none" xmlns="http://www.w3.org/2000/svg" xmlns:xlink="http://www.w3.org/1999/xlink">
	<desc>
			Created with Pixso.
	</desc>
	<defs/>
	<path id="XMLID_799_" d="M13.05 1.81C11.74 0.48 9.92 -0.26 7.93 -0.26C4.89 -0.26 3.03 1.06 2 2.16C0.72 3.53 0 5.33 0 7.13C0 9.37 0.88 11.1 2.37 11.74C2.47 11.79 2.57 11.81 2.67 11.81C2.98 11.81 3.23 11.59 3.32 11.24C3.37 11.04 3.49 10.55 3.54 10.33C3.65 9.91 3.56 9.71 3.32 9.41C2.89 8.87 2.69 8.24 2.69 7.41C2.69 4.94 4.42 2.32 7.64 2.32C10.19 2.32 11.77 3.86 11.77 6.33C11.77 7.88 11.45 9.33 10.88 10.39C10.48 11.13 9.77 12.01 8.69 12.01C8.23 12.01 7.81 11.8 7.54 11.45C7.29 11.11 7.21 10.68 7.31 10.23C7.42 9.72 7.58 9.19 7.73 8.68C8 7.74 8.26 6.85 8.26 6.15C8.26 4.94 7.56 4.13 6.51 4.13C5.19 4.13 4.15 5.55 4.15 7.38C4.15 8.27 4.37 8.94 4.47 9.19C4.3 9.94 3.31 14.4 3.12 15.24C3.01 15.74 2.36 19.61 3.44 19.92C4.66 20.27 5.76 16.49 5.87 16.07C5.96 15.72 6.27 14.41 6.47 13.6C7.05 14.2 8 14.61 8.93 14.61C10.67 14.61 12.24 13.78 13.34 12.27C14.41 10.81 15 8.78 15 6.54C15 4.79 14.29 3.07 13.05 1.81Z" fill="#5A5A5A" fill-opacity="1.000000" fill-rule="nonzero"/>
</svg>
