<svg width="20.000000" height="21.000000" viewBox="0 0 20 21" fill="none" xmlns="http://www.w3.org/2000/svg" xmlns:xlink="http://www.w3.org/1999/xlink">
	<desc>
			Created with Pixso.
	</desc>
	<defs/>
	<path d="M6.25 0.151611L13.75 0.151611C17.2013 0.151611 20 2.97864 20 6.46472L20 14.0405C20 17.5266 17.2013 20.3536 13.75 20.3536L6.25 20.3536C2.79871 20.3536 0 17.5266 0 14.0405L0 6.46472C0 2.97864 2.79871 0.151611 6.25 0.151611ZM13.75 18.4597C16.1625 18.4597 18.125 16.4774 18.125 14.0405L18.125 6.46472C18.125 4.02783 16.1625 2.04553 13.75 2.04553L6.25 2.04553C3.83752 2.04553 1.875 4.02783 1.875 6.46472L1.875 14.0405C1.875 16.4774 3.83752 18.4597 6.25 18.4597L13.75 18.4597Z" clip-rule="evenodd" fill="#666666" fill-opacity="1.000000" fill-rule="evenodd"/>
	<path d="M5 10.2527C5 7.4635 7.23877 5.20215 10 5.20215C12.7612 5.20215 15 7.4635 15 10.2527C15 13.0417 12.7612 15.3031 10 15.3031C7.23877 15.3031 5 13.0417 5 10.2527ZM6.875 10.2527C6.875 11.9926 8.27747 13.4092 10 13.4092C11.7225 13.4092 13.125 11.9926 13.125 10.2527C13.125 8.51147 11.7225 7.09607 10 7.09607C8.27747 7.09607 6.875 8.51147 6.875 10.2527Z" clip-rule="evenodd" fill="#5A5A5A" fill-opacity="1.000000" fill-rule="evenodd"/>
	<path d="M15 5.2C15.55 5.2 16 4.74 16 4.19C16 3.63 15.55 3.18 15 3.18C14.44 3.18 14 3.63 14 4.19C14 4.74 14.44 5.2 15 5.2Z" fill="#5A5A5A" fill-opacity="1.000000" fill-rule="nonzero"/>
</svg>
