<svg width="128.000000" height="32.000000" viewBox="0 0 128 32" fill="none" xmlns="http://www.w3.org/2000/svg" xmlns:xlink="http://www.w3.org/1999/xlink">
	<desc>
			Created with Pixso.
	</desc>
	<defs>
		<clipPath id="clip0_341">
			<rect width="128.000000" height="32.000000" fill="white" fill-opacity="0"/>
		</clipPath>
	</defs>
	<rect width="128.000000" height="32.000000" fill="#FFFFFF" fill-opacity="0"/>
	<g clip-path="url(#clip0_341)">
		<g opacity="0.350000">
			<rect y="22.000000" width="125.000000" height="6.000000" fill="#C9A96E" fill-opacity="1.000000"/>
			<rect y="22.000000" width="125.000000" height="6.000000" stroke="#979797" stroke-opacity="0" stroke-width="0.000000"/>
		</g>
		<path d="M14.48 25.27L20.66 25.27L20.66 24.32C19.97 23.94 19.25 23.7 18.48 23.6L19.96 19.62L25.51 19.62L26.96 23.6C26.62 23.66 26.27 23.76 25.91 23.9C25.54 24.03 25.2 24.17 24.88 24.32L24.88 25.27L32.71 25.27L32.71 24.32C32.46 24.15 32.17 24.01 31.83 23.9C31.5 23.76 31.17 23.66 30.83 23.6L24.56 7.47L22.71 7.47L16.26 23.6C15.96 23.66 15.65 23.76 15.33 23.9C15.03 24.01 14.75 24.15 14.48 24.32L14.48 25.27ZM39.9 23.72C39.56 23.55 39.3 23.38 39.12 23.2L38.1 19.52L37.07 19.52C36.99 19.82 36.9 20.17 36.82 20.57C36.74 20.97 36.65 21.4 36.57 21.85C36.5 22.28 36.44 22.72 36.37 23.17C36.3 23.6 36.26 24.01 36.25 24.4C36.43 24.55 36.7 24.69 37.07 24.82C37.45 24.95 37.89 25.08 38.37 25.2C38.85 25.31 39.36 25.4 39.9 25.47C40.45 25.54 40.99 25.57 41.52 25.57Q44.8 25.57 46.47 24.22C47.6 23.3 48.17 22.01 48.17 20.35Q48.17 18.97 47.57 18.04C47.17 17.41 46.67 16.86 46.07 16.4C45.47 15.93 44.81 15.52 44.1 15.17C43.4 14.8 42.75 14.44 42.15 14.07Q41.25 13.52 40.65 12.87Q40.41 12.6 40.26 12.29Q40.05 11.81 40.05 11.25C40.05 10.55 40.29 10.01 40.77 9.64C41.25 9.28 41.85 9.1 42.55 9.1C42.96 9.1 43.36 9.14 43.75 9.22C44.15 9.3 44.45 9.39 44.65 9.5L45.8 12.92L46.82 12.92C46.89 12.67 46.95 12.36 47.02 12C47.1 11.61 47.18 11.21 47.25 10.8C47.31 10.36 47.36 9.93 47.4 9.5Q47.47 8.85 47.5 8.35C46.8 8.05 46 7.83 45.12 7.7C44.25 7.55 43.31 7.47 42.3 7.47C41.46 7.47 40.69 7.57 39.97 7.77C39.25 7.95 38.63 8.25 38.1 8.64C37.58 9.03 37.17 9.52 36.87 10.12C36.57 10.72 36.42 11.43 36.42 12.25C36.42 13.2 36.61 14 37 14.65C37.4 15.28 37.9 15.83 38.5 16.29C39.1 16.76 39.74 17.17 40.42 17.52C41.1 17.85 41.75 18.2 42.35 18.54C42.95 18.9 43.44 19.28 43.82 19.7C44.22 20.11 44.42 20.63 44.42 21.25C44.42 22.1 44.11 22.76 43.5 23.25C42.9 23.71 42.14 23.95 41.22 23.95C40.67 23.95 40.23 23.87 39.9 23.72ZM86.68 12.92Q86.13 14.57 86.13 16.52Q86.13 18.47 86.68 20.15C87.04 21.25 87.58 22.2 88.3 23.02C89.02 23.82 89.9 24.45 90.95 24.9C92 25.35 93.21 25.57 94.58 25.57C95.94 25.57 97.15 25.35 98.2 24.9Q99.55 24.32 100.52 23.35Q100.68 23.19 100.83 23.02C101.54 22.2 102.09 21.25 102.45 20.15C102.82 19.03 103 17.82 103 16.52C103 15.22 102.82 14.02 102.45 12.92C102.09 11.8 101.54 10.85 100.83 10.05Q100.6 9.79 100.36 9.55Q99.44 8.68 98.2 8.14C97.15 7.7 95.94 7.47 94.58 7.47C93.21 7.47 92 7.7 90.95 8.14C89.9 8.6 89.02 9.23 88.3 10.05C87.58 10.85 87.04 11.8 86.68 12.92ZM8.22 24.32C7.54 23.94 6.81 23.7 6.05 23.6L6.05 17.6L9.62 17.6L10.6 19.35L11.37 19.35C11.45 18.6 11.5 17.77 11.52 16.87Q11.55 15.52 11.37 14.25L10.6 14.25L9.62 15.97L6.05 15.97L6.05 9.39L10.9 9.39L12.05 12.35L13.07 12.35C13.14 12.01 13.2 11.65 13.25 11.27C13.31 10.87 13.36 10.47 13.4 10.07C13.45 9.65 13.49 9.25 13.52 8.87C13.55 8.47 13.57 8.1 13.57 7.77L0.5 7.77L0.5 8.72Q0.85 8.92 1.27 9.12C1.57 9.25 1.91 9.36 2.3 9.45L2.3 23.6C1.96 23.68 1.65 23.79 1.35 23.92Q0.9 24.1 0.5 24.32L0.5 25.27L8.22 25.27L8.22 24.32ZM52.14 25.27L59.71 25.27L59.71 24.32C59.43 24.14 59.14 23.99 58.86 23.87C58.58 23.75 58.27 23.66 57.94 23.6L57.94 17.12L64.56 17.12L64.56 23.6C64.23 23.66 63.91 23.76 63.61 23.9C63.31 24.03 63.04 24.17 62.79 24.32L62.79 25.27L70.36 25.27L70.36 24.32Q69.96 24.1 69.41 23.9C69.06 23.76 68.69 23.66 68.31 23.6L68.31 9.45C68.66 9.38 69.02 9.29 69.39 9.17C69.75 9.05 70.08 8.9 70.36 8.72L70.36 7.77L62.79 7.77L62.79 8.72C63.02 8.87 63.28 9.01 63.56 9.14C63.86 9.28 64.19 9.38 64.56 9.45L64.56 15.5L57.94 15.5L57.94 9.45C58.25 9.39 58.56 9.3 58.86 9.17C59.18 9.04 59.46 8.89 59.71 8.72L59.71 7.77L52.14 7.77L52.14 8.72C52.37 8.87 52.67 9.01 53.04 9.14C53.4 9.28 53.79 9.38 54.19 9.45L54.19 23.6C53.85 23.66 53.49 23.76 53.11 23.9C52.74 24.03 52.42 24.17 52.14 24.32L52.14 25.27ZM74.1 25.27L81.9 25.27L81.9 24.32C81.6 24.14 81.27 23.99 80.9 23.87C80.55 23.75 80.21 23.66 79.87 23.6L79.87 9.45C80.21 9.39 80.55 9.31 80.9 9.2C81.27 9.06 81.6 8.9 81.9 8.72L81.9 7.77L74.1 7.77L74.1 8.72C74.38 8.89 74.71 9.04 75.07 9.17C75.44 9.3 75.79 9.39 76.12 9.45L76.12 23.6C75.44 23.71 74.77 23.95 74.1 24.32L74.1 25.27ZM124.95 7.77L118.75 7.77L118.75 8.72C119.03 8.94 119.36 9.14 119.72 9.35C120.11 9.53 120.5 9.69 120.9 9.82L120.9 18.17L121.02 20.32L120.92 20.32L119.77 18.17L112.6 7.77L107.2 7.77L107.2 8.7C107.47 8.88 107.77 9.05 108.1 9.22C108.43 9.39 108.77 9.54 109.1 9.67L109.1 23.32C108.72 23.44 108.34 23.59 107.97 23.77C107.62 23.94 107.3 24.12 107 24.32L107 25.27L113.17 25.27L113.17 24.32C112.89 24.12 112.54 23.93 112.12 23.75C111.72 23.55 111.36 23.4 111.02 23.32L111.02 12.9L110.8 10.9L110.87 10.9L111.87 12.82L120.7 25.57L122.82 25.57L122.82 9.82C123.16 9.72 123.52 9.58 123.9 9.39C124.28 9.2 124.63 8.97 124.95 8.72L124.95 7.77ZM90.63 19.5C90.46 18.58 90.38 17.59 90.38 16.52Q90.38 14.92 90.55 13.57Q90.75 12.2 91.2 11.22C91.52 10.55 91.93 10.04 92.45 9.67C92.97 9.29 93.61 9.1 94.38 9.1C95.18 9.1 95.85 9.29 96.4 9.67C96.97 10.04 97.42 10.55 97.75 11.22C98.1 11.87 98.35 12.65 98.5 13.57C98.67 14.47 98.75 15.45 98.75 16.52C98.75 17.59 98.68 18.58 98.53 19.5C98.39 20.4 98.17 21.18 97.85 21.85C97.53 22.5 97.13 23.01 96.63 23.4C96.13 23.76 95.52 23.95 94.8 23.95C94.02 23.95 93.34 23.76 92.78 23.4C92.23 23.01 91.77 22.5 91.4 21.85C91.05 21.18 90.79 20.4 90.63 19.5ZM24.98 18L20.56 18L22.28 13.27L22.83 11.07L22.88 11.07L23.36 13.22L24.98 18Z" fill="#171717" fill-opacity="1.000000" fill-rule="evenodd"/>
	</g>
</svg>
