<svg width="20.000000" height="17.000000" viewBox="0 0 20 17" fill="none" xmlns="http://www.w3.org/2000/svg" xmlns:xlink="http://www.w3.org/1999/xlink">
	<desc>
			Created with Pixso.
	</desc>
	<defs/>
	<path d="M20 1.62C19.26 1.95 18.47 2.18 17.64 2.28C18.49 1.76 19.14 0.93 19.44 -0.06C18.65 0.42 17.77 0.78 16.84 0.97C16.09 0.14 15.02 -0.37 13.84 -0.37C11.58 -0.37 9.74 1.53 9.74 3.87C9.74 4.2 9.77 4.52 9.84 4.83C6.43 4.66 3.41 2.97 1.39 0.4C1.03 1.03 0.83 1.76 0.83 2.53C0.83 4 1.56 5.3 2.66 6.06C1.98 6.04 1.35 5.85 0.8 5.53C0.8 5.55 0.8 5.57 0.8 5.59C0.8 7.64 2.21 9.35 4.09 9.74C3.75 9.84 3.38 9.89 3.01 9.89C2.74 9.89 2.49 9.86 2.24 9.81C2.76 11.5 4.27 12.72 6.07 12.76C4.67 13.9 2.9 14.57 0.97 14.57C0.64 14.57 0.32 14.55 0 14.51C1.81 15.72 3.97 16.42 6.28 16.42C13.83 16.42 17.96 9.96 17.96 4.36C17.96 4.17 17.96 3.99 17.95 3.81C18.75 3.21 19.45 2.47 20 1.62Z" fill="#5A5A5A" fill-opacity="1.000000" fill-rule="nonzero"/>
</svg>
