<svg width="20.000000" height="20.000000" viewBox="0 0 20 20" fill="none" xmlns="http://www.w3.org/2000/svg" xmlns:xlink="http://www.w3.org/1999/xlink">
	<desc>
			Created with Pixso.
	</desc>
	<defs/>
	<path id="Shape Copy 5" d="M9.99976 -0.555664C4.48584 -0.555664 0 3.97595 0 9.54553C0 15.1151 4.48584 19.6464 9.99976 19.6464C15.5138 19.6464 20 15.1154 20 9.54553C20 3.97595 15.5138 -0.555664 9.99976 -0.555664ZM15.566 3.1449C14.0782 1.82617 12.1305 1.02551 9.99976 1.02551C9.34509 1.02551 8.70764 1.10181 8.09509 1.24524C8.43884 1.71423 9.88306 3.73438 11.2026 6.17383C14.0533 5.08447 15.3306 3.46985 15.566 3.1449ZM6.37085 1.85339C6.66211 2.25916 8.10864 4.30078 9.46204 6.7207C5.82983 7.6864 2.60425 7.74939 1.82581 7.74939L1.74316 7.74939C2.30237 5.14258 4.04382 2.97644 6.37085 1.85339ZM16.58 4.21179C17.7206 5.6416 18.4139 7.44739 18.4458 9.41504C18.0663 9.3363 16.4589 9.0332 14.538 9.0332C13.9182 9.0332 13.2659 9.06458 12.6118 9.14624C12.5566 9.0105 12.5013 8.87524 12.4434 8.73853C12.2738 8.33508 12.0909 7.93481 11.9017 7.54041C14.8582 6.30847 16.2842 4.59888 16.58 4.21179ZM1.55469 9.34814C1.55249 9.41821 1.55139 9.48853 1.55139 9.55884C1.55139 11.7255 2.35559 13.7051 3.67883 15.2129C4.03589 14.6161 6.35681 10.9645 10.5795 9.58521C10.6722 9.55457 10.7656 9.5271 10.8604 9.49951C10.6588 9.04285 10.4421 8.58582 10.2145 8.1355C6.46423 9.26111 2.82495 9.34875 1.77649 9.34875C1.67981 9.34875 1.60522 9.34875 1.55469 9.34814ZM13.1658 10.5957C14.2164 13.5267 14.6718 15.9299 14.785 16.5874C16.6349 15.2982 17.9525 13.2841 18.334 10.9565C18.0131 10.8573 16.6318 10.4664 14.866 10.4664C14.3284 10.4664 13.755 10.5029 13.1658 10.5957ZM9.99976 18.0916C8.06201 18.0916 6.2738 17.4277 4.84692 16.3149C5.08826 15.8363 6.84009 12.6464 11.4675 11.0176C11.4703 11.0164 11.4734 11.0153 11.4768 11.0144C12.6371 14.0697 13.1285 16.6339 13.2633 17.4286C12.2592 17.8556 11.1564 18.0916 9.99976 18.0916Z" clip-rule="evenodd" fill="#5A5A5A" fill-opacity="1.000000" fill-rule="evenodd"/>
</svg>
