<svg width="22.000000" height="15.000000" viewBox="0 0 22 15" fill="none" xmlns="http://www.w3.org/2000/svg" xmlns:xlink="http://www.w3.org/1999/xlink">
	<desc>
			Created with Pixso.
	</desc>
	<defs/>
	<path d="M0 7.31C-0.13 3.84 2.87 0.63 6.29 0.59C8.03 0.43 9.73 1.12 11.05 2.25C10.51 2.85 9.96 3.45 9.37 4.01C8.21 3.29 6.81 2.75 5.45 3.23C3.26 3.87 1.93 6.49 2.74 8.67C3.41 10.95 6.14 12.2 8.27 11.24C9.38 10.84 10.11 9.8 10.43 8.69C9.16 8.66 7.89 8.68 6.62 8.64C6.62 7.88 6.62 7.12 6.62 6.35C8.73 6.35 10.85 6.34 12.97 6.36C13.1 8.24 12.82 10.24 11.62 11.75C9.98 13.9 6.94 14.53 4.47 13.69C1.85 12.81 -0.06 10.13 0 7.31Z" fill="#5A5A5A" fill-opacity="1.000000" fill-rule="nonzero"/>
	<path d="M18.01 3.68C18.67 3.68 19.33 3.68 19.99 3.68C19.99 4.36 20 5.06 20 5.74C20.66 5.75 21.33 5.75 22 5.76C22 6.45 22 7.13 22 7.82C21.33 7.82 20.67 7.82 20 7.83C20 8.52 19.99 9.21 19.99 9.9C19.33 9.9 18.66 9.9 18 9.9C18 9.21 18 8.52 17.99 7.83C17.33 7.82 16.66 7.82 16 7.82C16 7.13 16 6.45 16 5.76C16.66 5.75 17.32 5.75 17.99 5.74C17.99 5.06 18 4.36 18.01 3.68Z" fill="#5A5A5A" fill-opacity="1.000000" fill-rule="nonzero"/>
</svg>
