<svg width="6.000000" height="6.000000" viewBox="0 0 6 6" fill="none" xmlns="http://www.w3.org/2000/svg" xmlns:xlink="http://www.w3.org/1999/xlink">
	<desc>
			Created with Pixso.
	</desc>
	<defs/>
	<path id="Path" d="M2.01 -0.32C2.67 -0.32 3.33 -0.32 3.99 -0.32C3.99 0.36 4 1.06 4 1.74C4.66 1.75 5.33 1.75 6 1.76C6 2.45 6 3.13 6 3.82C5.33 3.82 4.67 3.82 4 3.83C4 4.52 3.99 5.21 3.99 5.9C3.33 5.9 2.66 5.9 2 5.9C2 5.21 2 4.52 1.99 3.83C1.33 3.82 0.66 3.82 0 3.82C0 3.13 0 2.45 0 1.76C0.66 1.75 1.32 1.75 1.99 1.74C1.99 1.06 2 0.36 2.01 -0.32Z" fill="#5A5A5A" fill-opacity="1.000000" fill-rule="nonzero"/>
</svg>
