<svg width="20.000000" height="18.000000" viewBox="0 0 20 18" fill="none" xmlns="http://www.w3.org/2000/svg" xmlns:xlink="http://www.w3.org/1999/xlink">
	<desc>
			Created with Pixso.
	</desc>
	<defs/>
	<path d="M0 4.71C1.75 3.29 4.26 0.16 6.21 0.16C8.16 0.16 8.64 2.5 8.9 4.61C9.17 6.73 9.94 11.36 10.97 11.36C12 11.36 14.35 7.27 14.22 5.68C14.09 4.1 12.38 4.34 11.45 4.79C12.31 1.63 14.3 -0.06 16.84 -0.06C19.38 -0.06 20 1.76 20 4C20 7.41 13.19 17.84 9.08 17.84C6.53 17.84 5.9 14.04 5.39 12.15C4.87 10.28 3.86 5.35 2.67 5.03C2.21 4.95 0.91 6 0.91 6L0 4.71Z" fill="#5A5A5A" fill-opacity="1.000000" fill-rule="nonzero"/>
</svg>
