<svg width="13.000000" height="14.000000" viewBox="0 0 13 14" fill="none" xmlns="http://www.w3.org/2000/svg" xmlns:xlink="http://www.w3.org/1999/xlink">
	<desc>
			Created with Pixso.
	</desc>
	<defs/>
	<path id="Path" d="M0 6.31C-0.13 2.84 2.87 -0.37 6.29 -0.41C8.03 -0.57 9.73 0.12 11.05 1.25C10.51 1.85 9.96 2.45 9.37 3.01C8.21 2.29 6.81 1.75 5.45 2.23C3.26 2.87 1.93 5.49 2.74 7.67C3.41 9.95 6.14 11.2 8.27 10.24C9.38 9.84 10.11 8.8 10.43 7.69C9.16 7.66 7.89 7.68 6.62 7.64C6.62 6.88 6.62 6.12 6.62 5.35C8.73 5.35 10.85 5.34 12.97 5.36C13.1 7.24 12.82 9.24 11.62 10.75C9.98 12.9 6.94 13.53 4.47 12.69C1.85 11.81 -0.06 9.13 0 6.31Z" fill="#5A5A5A" fill-opacity="1.000000" fill-rule="nonzero"/>
</svg>
