<svg width="16.000000" height="20.000000" viewBox="0 0 16 20" fill="none" xmlns="http://www.w3.org/2000/svg" xmlns:xlink="http://www.w3.org/1999/xlink">
	<desc>
			Created with Pixso.
	</desc>
	<defs/>
	<path d="M12.48 14.1899L13.5344 14.1899L13.5468 13.5781C13.5468 13.306 13.3225 13.0839 13.0492 13.0839L12.9817 13.0839C12.7084 13.0839 12.4851 13.3059 12.4851 13.5781L12.48 14.1899ZM9.58118 12.8787C9.31458 12.8787 9.0957 13.0585 9.0957 13.2783L9.0957 16.2539C9.0957 16.4736 9.31458 16.6523 9.58118 16.6523C9.84973 16.6523 10.0686 16.4736 10.0686 16.2539L10.0686 13.278C10.0686 13.0585 9.84973 12.8787 9.58118 12.8787ZM16 11.2146C16 9.85693 14.8221 8.74536 13.3822 8.74536L2.61804 8.74536C1.17761 8.74536 0 9.85669 0 11.2146L0 16.8748C0 18.2324 1.17749 19.3435 2.61804 19.3435L13.382 19.3435C14.8223 19.3435 16 18.2328 16 16.8748L16 11.2146ZM3.33569 17.4893L3.33521 11.527L4.66943 11.5275L4.66943 10.6438L1.11255 10.6383L1.11255 11.5066L2.22302 11.51L2.22302 17.4893L3.33569 17.4893ZM7.33545 12.4154L6.22314 12.4154L6.22314 15.5991C6.22314 15.7821 6.22754 15.9288 6.23096 16.0442C6.23315 16.119 6.23499 16.1807 6.23499 16.2306C6.23499 16.2975 6.23169 16.3433 6.22168 16.3712C6.13086 16.6182 5.72412 16.8802 5.56592 16.3981C5.55615 16.3674 5.5531 16.3143 5.5531 16.2383C5.5531 16.1843 5.55469 16.1189 5.55652 16.0415C5.55908 15.9303 5.56238 15.7947 5.56238 15.634L5.56238 15.6208L5.55713 12.4152L4.45081 12.4152L4.45496 15.5702L4.45496 15.6001C4.45496 15.7565 4.45374 15.8994 4.45276 16.0266C4.4519 16.1284 4.45105 16.2201 4.45105 16.3003C4.45105 16.4202 4.45276 16.5144 4.4585 16.5786C4.48572 16.868 4.47559 17.2057 4.74475 17.3979C5.245 17.7588 6.20435 17.3442 6.44434 16.8291L6.44226 17.4863L7.33545 17.4877L7.33545 12.4154ZM10.8948 16.0612L10.8927 13.4111C10.8916 12.4009 10.136 11.796 9.10938 12.6133L9.11401 10.6429L8.00256 10.6447L7.99707 17.4448L8.91089 17.4314L8.99402 17.0076C10.1606 18.0784 10.8948 17.3477 10.8948 16.0664L10.8948 16.0612ZM14.3771 15.7101L13.5425 15.7145C13.5425 15.7478 13.5409 15.7858 13.5404 15.8275L13.5404 16.2928C13.5404 16.5419 13.3347 16.7446 13.0846 16.7446L12.9213 16.7446C12.6707 16.7446 12.465 16.5419 12.465 16.2928L12.465 15.0686L14.3752 15.0686L14.3752 14.3499C14.3752 13.825 14.3616 13.2999 14.3182 12.9998C14.1818 12.0497 12.848 11.899 12.174 12.3853C11.9624 12.5372 11.801 12.7405 11.7067 13.0139C11.6119 13.2871 11.5649 13.6599 11.5649 14.134L11.5649 15.714C11.5657 18.193 14.4084 18.0016 14.4084 16.0729C14.4084 15.9581 14.3984 15.837 14.3771 15.7101ZM10.0978 7.13135C10.1548 7.27112 10.2439 7.38379 10.3654 7.46948C10.4844 7.55298 10.6377 7.59558 10.8206 7.59558C10.9808 7.59558 11.123 7.55225 11.2463 7.46277C11.37 7.37378 11.4742 7.24121 11.5588 7.06372L11.5377 7.50024L12.7777 7.50024L12.7777 2.22852L11.8015 2.22852L11.8015 6.33142C11.8015 6.55322 11.618 6.73511 11.3942 6.73511C11.172 6.73511 10.9879 6.55322 10.9879 6.33142L10.9879 2.22852L9.96936 2.22852L9.96936 5.78394C9.96936 6.23706 9.97742 6.53906 9.99097 6.69226C10.0056 6.84448 10.0405 6.99023 10.0978 7.13135ZM6.46582 2.96802C6.3822 3.25293 6.33984 3.64783 6.33984 4.15393L6.34009 4.15393L6.34009 5.5498C6.34009 6.01208 6.3623 6.35852 6.4093 6.58936C6.45544 6.81995 6.5321 7.01782 6.64209 7.1803C6.75012 7.34253 6.90247 7.46484 7.09912 7.5459C7.29492 7.62756 7.53345 7.66663 7.8158 7.66663C8.06921 7.66663 8.29297 7.62012 8.48853 7.52502C8.68262 7.43103 8.84265 7.28381 8.96655 7.08667C9.09192 6.88782 9.17297 6.67554 9.21033 6.44641C9.24829 6.2179 9.26794 5.85828 9.26794 5.36914L9.26794 4.03577C9.26794 3.64966 9.2478 3.36255 9.20593 3.17261C9.16492 2.98511 9.08911 2.80176 8.97595 2.62341C8.86609 2.44568 8.7063 2.302 8.50073 2.19116C8.29504 2.08093 8.04907 2.02441 7.76233 2.02441C7.42175 2.02441 7.14087 2.11084 6.92151 2.28394C6.70215 2.45581 6.54993 2.68408 6.46582 2.96802ZM7.31067 6.24829C7.31067 6.54651 7.53345 6.79028 7.80408 6.79028C8.07483 6.79028 8.29602 6.54675 8.29602 6.24829L8.29602 3.44165C8.29602 3.14355 8.07483 2.89978 7.80408 2.89978C7.53345 2.89978 7.31067 3.14331 7.31067 3.44165L7.31067 6.24829ZM3.87866 7.66528L5.04895 7.66528L5.05005 3.62195L6.4325 0.158325L5.15283 0.158325L4.41785 2.73145L3.67224 0.151611L2.40613 0.151611L3.87683 3.62439L3.87866 7.66528Z" clip-rule="evenodd" fill="#5A5A5A" fill-opacity="1.000000" fill-rule="evenodd"/>
</svg>
